<?xml version="1.0" standalone="no"?>
<!DOCTYPE svg PUBLIC "-//W3C//DTD SVG 20010904//EN"
 "http://www.w3.org/TR/2001/REC-SVG-20010904/DTD/svg10.dtd">
<svg version="1.0" xmlns="http://www.w3.org/2000/svg"
 width="300.000000pt" height="300.000000pt" viewBox="0 0 300.000000 300.000000"
 preserveAspectRatio="xMidYMid meet">
<metadata>
Created by potrace 1.11, written by Peter Selinger 2001-2013
</metadata>
<g transform="translate(0.000000,300.000000) scale(0.100000,-0.100000)"
fill="#000000" stroke="none">
<path d="M1451 2751 c-17 -17 -31 -35 -31 -41 0 -6 -4 -8 -10 -5 -5 3 -10 -1
-10 -10 0 -9 -4 -14 -9 -10 -5 3 -18 -8 -27 -24 -10 -17 -21 -28 -26 -25 -4 3
-8 1 -8 -3 0 -14 -97 -112 -104 -106 -6 6 -10 -12 -7 -29 0 -5 -2 -7 -7 -6 -4
2 -45 -35 -91 -81 -46 -46 -78 -81 -70 -77 8 4 3 -2 -11 -13 -14 -11 -29 -21
-34 -21 -5 0 -6 -3 -3 -6 4 -4 -10 -20 -30 -35 -20 -16 -32 -29 -28 -29 4 0
-5 -12 -21 -27 -16 -15 -32 -26 -36 -25 -5 1 -8 -3 -8 -8 0 -6 -35 -45 -77
-88 -43 -42 -90 -92 -105 -110 -16 -19 -28 -31 -28 -27 0 3 -11 -6 -25 -21
-14 -15 -25 -31 -25 -36 0 -5 -4 -6 -10 -3 -5 3 -10 2 -10 -3 0 -13 -69 -82
-82 -82 -6 0 -8 -3 -5 -7 4 -3 -5 -15 -20 -25 -16 -10 -24 -18 -19 -18 4 0
-11 -19 -35 -42 -24 -24 -48 -42 -52 -40 -5 1 -6 -1 -3 -6 3 -5 -14 -27 -37
-49 -23 -22 -43 -44 -44 -49 -1 -7 251 -10 728 -10 401 0 729 3 729 8 0 4 -20
28 -45 52 -25 25 -45 51 -45 57 0 7 -3 10 -6 6 -3 -3 -24 15 -47 41 -22 26
-69 77 -105 114 l-65 66 -74 -1 c-41 -1 -77 1 -80 6 -3 4 -11 3 -19 -4 -12
-10 -18 -9 -32 4 -11 12 -12 17 -4 17 7 0 11 4 7 9 -3 5 4 12 15 16 11 3 20
10 20 15 0 5 26 36 58 68 31 33 77 81 101 108 25 26 47 42 49 36 2 -7 7 -10
11 -8 4 3 16 -9 26 -25 11 -16 25 -29 32 -29 6 0 14 -8 17 -18 4 -11 18 -25
31 -32 14 -7 25 -20 25 -28 0 -9 3 -13 6 -9 8 8 54 -38 54 -54 0 -7 2 -10 5
-7 7 7 272 -255 267 -264 -2 -5 2 -8 8 -8 5 0 30 -20 53 -45 24 -25 47 -42 51
-38 4 5 6 3 4 -3 -2 -6 42 -55 97 -109 l100 -98 0 -371 0 -371 -791 -1 -791
-1 1 278 c1 152 4 275 8 272 5 -2 4 7 -1 20 -6 14 -7 27 -4 31 9 9 4 129 -6
136 -5 3 -97 5 -203 4 -191 -1 -193 -1 -192 -22 0 -12 -4 -22 -10 -22 -6 0 -4
-5 4 -10 11 -7 11 -10 2 -10 -10 0 -10 -5 -2 -20 8 -15 8 -20 -2 -20 -9 0 -9
-3 2 -10 11 -7 11 -10 2 -10 -10 0 -10 -5 -2 -20 8 -14 8 -20 0 -20 -8 0 -8
-6 0 -20 8 -14 8 -20 0 -20 -8 0 -8 -6 0 -20 8 -14 8 -20 0 -20 -8 0 -8 -6 0
-20 8 -15 8 -20 -1 -20 -8 0 -8 -4 -2 -13 6 -6 9 -32 7 -57 -1 -25 3 -51 9
-59 10 -12 9 -13 -2 -7 -10 7 -12 0 -8 -32 2 -23 -1 -46 -7 -53 -8 -9 -8 -10
1 -5 6 3 14 2 18 -4 3 -5 1 -10 -5 -10 -8 0 -11 -15 -8 -45 3 -24 0 -49 -6
-56 -8 -9 -8 -10 2 -5 7 4 12 1 12 -8 0 -9 -6 -16 -12 -16 -8 0 -9 -3 -3 -8
13 -9 14 -203 1 -195 -5 4 -6 1 -1 -6 9 -16 12 -251 3 -245 -4 3 -3 -8 3 -23
l9 -28 1183 0 c650 0 1184 2 1187 6 3 4 5 303 5 665 0 539 -3 658 -14 662 -7
2 -25 18 -39 34 -15 17 -78 82 -139 144 -62 63 -111 114 -108 114 2 0 -25 27
-60 60 -36 33 -64 63 -62 66 1 3 -9 12 -23 19 -14 8 -21 14 -16 15 14 0 -101
110 -116 110 -9 0 -10 2 -2 8 9 5 8 11 -2 20 -8 7 -14 10 -14 6 0 -4 -11 6
-25 22 -14 16 -25 32 -25 35 0 3 -11 12 -25 19 -14 7 -23 15 -21 17 6 7 -166
178 -175 176 -5 -2 -5 5 -2 14 4 11 3 14 -5 9 -7 -4 -12 -1 -12 9 0 9 -4 14
-8 11 -5 -3 -17 7 -28 22 -10 14 -49 56 -86 93 -37 36 -64 70 -60 74 4 5 1 5
-5 1 -8 -4 -17 2 -25 18 -6 14 -16 26 -22 26 -6 0 -25 16 -42 36 l-32 35 -31
-30z"/>
</g>
</svg>
